<svg viewbox="0 0 168 58" fill="none" xmlns="http://www.w3.org/2000/svg"><rect y=".151" width="168" height="57.396" rx="7.2" fill="#000"/><path fill-rule="evenodd" clip-rule="evenodd" d="M106.887 40.887c.993-.902 1.488-2.07 1.488-3.507 0-1.167-.339-2.145-1.017-2.927-.682-.784-1.741-1.467-3.183-2.052-1.178-.469-1.99-.902-2.438-1.303a2.072 2.072 0 01-.769-1.653c0-.603.224-1.112.671-1.53.529-.466 1.267-.701 2.212-.701 1.195 0 2.262.259 3.207.777l.671-2.206c-1.011-.534-2.278-.801-3.803-.801-1.71 0-3.078.442-4.103 1.33-1.028.885-1.542 2.023-1.542 3.41 0 2.125 1.466 3.74 4.4 4.842 1.078.403 1.85.838 2.312 1.306.464.468.696 1.045.696 1.73 0 .77-.281 1.386-.844 1.845-.565.46-1.352.69-2.363.69a7.32 7.32 0 01-3.881-1.078l-.622 2.255c1.094.701 2.54 1.051 4.343 1.051 1.953 0 3.473-.492 4.565-1.478zm-41.823 1.228h-2.86l-1.566-4.959h-5.445l-1.492 4.96h-2.785l5.395-16.885h3.332l5.421 16.884zm-4.898-7.04h-4.5l1.392-4.409c.365-1.402.63-2.462.796-3.18h.05c.414 1.67.695 2.73.845 3.18l1.417 4.41zm17.105 5.712c1.111-1.201 1.666-2.838 1.666-4.909 0-1.853-.476-3.348-1.43-4.485-.952-1.135-2.142-1.702-3.568-1.702-1.823 0-3.182.725-4.077 2.18h-.05l-.15-1.93H67.3c.066 1.37.1 2.706.1 4.008v13.127h2.685v-6.413h.05c.697 1.152 1.84 1.728 3.432 1.728 1.474 0 2.71-.534 3.704-1.604zm-1.069-4.81c0-1.185-.264-2.162-.796-2.93-.58-.802-1.36-1.203-2.337-1.203-.662 0-1.264.223-1.802.663-.539.444-.891 1.024-1.056 1.742a3.567 3.567 0 00-.125.825v2.03c0 .886.27 1.633.808 2.243.54.61 1.24.915 2.1.915 1.012 0 1.8-.393 2.362-1.178.564-.785.846-1.82.846-3.107zm14.966 4.81c1.112-1.201 1.668-2.838 1.668-4.909 0-1.853-.477-3.348-1.428-4.485-.955-1.135-2.145-1.702-3.569-1.702-1.825 0-3.183.725-4.077 2.18h-.05l-.15-1.93H81.2c.066 1.37.1 2.706.1 4.008v13.127h2.684v-6.413h.05c.696 1.152 1.84 1.728 3.431 1.728 1.475 0 2.71-.534 3.703-1.604zm-1.067-4.81c0-1.185-.266-2.162-.797-2.93-.581-.802-1.358-1.203-2.336-1.203-.664 0-1.265.223-1.804.663-.539.444-.89 1.024-1.055 1.742a3.64 3.64 0 00-.125.825v2.03c0 .886.27 1.633.806 2.243.54.61 1.24.915 2.103.915 1.011 0 1.799-.393 2.361-1.178.565-.785.847-1.82.847-3.107zm27.151-4.006h-2.96v5.91c0 1.504.522 2.255 1.567 2.255.48 0 .878-.042 1.192-.125l.075 2.054c-.529.199-1.226.3-2.088.3-1.061 0-1.889-.327-2.487-.978-.596-.652-.896-1.746-.896-3.282v-6.137h-1.763v-2.03h1.763v-2.23l2.637-.801v3.031h2.96v2.033zm11.76 8.566c1.06-1.201 1.591-2.738 1.591-4.61 0-1.82-.513-3.306-1.543-4.456-1.077-1.187-2.504-1.78-4.277-1.78-1.84 0-3.303.602-4.387 1.805-1.087 1.202-1.628 2.747-1.628 4.634 0 1.802.526 3.298 1.579 4.483 1.053 1.185 2.464 1.778 4.237 1.778 1.84 0 3.316-.617 4.428-1.854zm-1.194-4.522c0-1.123-.238-2.086-.72-2.889-.563-.971-1.368-1.456-2.411-1.456-1.079 0-1.898.486-2.461 1.456-.483.805-.721 1.783-.721 2.94 0 1.123.238 2.086.721 2.888.58.972 1.391 1.456 2.438 1.456 1.025 0 1.829-.494 2.41-1.482.495-.818.744-1.791.744-2.913zm10.666-3.77c.297 0 .58.025.846.075v-2.58a4.28 4.28 0 00-.671-.05c-.696 0-1.342.218-1.941.653-.612.483-1.059 1.128-1.342 1.928h-.074l-.098-2.33h-2.339a66.44 66.44 0 01.101 3.834l-.025 8.34h2.683v-6.388c0-.968.224-1.77.671-2.404.514-.72 1.244-1.078 2.189-1.078zm12.853 3.207c0 .485-.031.893-.098 1.227h-8.054c.031 1.203.42 2.122 1.168 2.757.679.567 1.557.851 2.635.851 1.192 0 2.28-.191 3.259-.576l.42 1.878c-1.143.502-2.493.752-4.051.752-1.874 0-3.344-.555-4.415-1.666-1.068-1.11-1.603-2.6-1.603-4.47 0-1.837.498-3.365 1.494-4.585 1.042-1.301 2.451-1.952 4.225-1.952 1.741 0 3.06.65 3.955 1.952.709 1.034 1.065 2.313 1.065 3.832zm-3.081-2.781c.364.585.539 1.278.521 2.08v-.002h-5.592c.082-.817.347-1.519.794-2.103.546-.736 1.26-1.103 2.137-1.103.961 0 1.675.376 2.14 1.128zM85.71 10.463h1.32v8.725h-1.32v-8.725zm-27.764 7.753c.887-.755 1.332-1.879 1.332-3.372 0-1.33-.412-2.351-1.233-3.066-.733-.631-1.82-.947-3.262-.947-.816 0-1.571.058-2.273.172v8.16c.538.066 1.18.099 1.931.099 1.514 0 2.682-.35 3.505-1.046zm-.823-5.563c.509.517.763 1.26.763 2.227 0 1.084-.277 1.909-.826 2.475-.549.565-1.328.848-2.338.848-.432 0-.73-.011-.892-.036v-6.203a5.55 5.55 0 011.063-.087c.978 0 1.721.26 2.23.776zm9.533 3.495c0 .92-.26 1.674-.782 2.265-.547.607-1.27.91-2.175.91-.871 0-1.565-.29-2.083-.873-.516-.583-.774-1.317-.774-2.203 0-.926.266-1.686.8-2.276.533-.59 1.251-.886 2.155-.886.872 0 1.572.29 2.102.873.504.566.757 1.297.757 2.19zm-1.723-1.377c.236.395.354.868.354 1.42 0 .552-.122 1.03-.367 1.431-.284.486-.68.729-1.183.729-.514 0-.912-.239-1.198-.716-.235-.395-.354-.868-.354-1.42 0-.568.117-1.049.354-1.444.277-.477.68-.715 1.21-.715.513 0 .907.238 1.184.715zm11.615-1.564v.001h-1.295l-.72 2.794a18.935 18.935 0 00-.404 1.97h-.036a23.085 23.085 0 00-.476-1.97l-.807-2.794h-1.076l-.842 2.855c-.23.77-.392 1.407-.49 1.907h-.024a31.504 31.504 0 00-.403-1.92l-.671-2.843h-1.356l1.746 5.98h1.223l.817-2.596c.204-.632.363-1.275.478-1.933h.024c.123.64.282 1.284.477 1.933l.77 2.597h1.208l1.857-5.98v-.001zm5.522 5.98h1.32v-3.582c0-.878-.228-1.539-.684-1.982-.366-.361-.827-.542-1.381-.542-.438 0-.839.113-1.196.337-.301.191-.53.431-.684.722h-.037l-.061-.936h-1.16c.031.617.048 1.187.048 1.712v4.27h1.32V15.64c0-.392.123-.734.366-1.025.245-.29.561-.435.953-.435.798 0 1.196.528 1.196 1.583v3.426zm11.947-.774c.521-.591.782-1.345.782-2.265 0-.893-.253-1.624-.757-2.19-.531-.582-1.23-.873-2.103-.873-.903 0-1.62.296-2.154.886-.534.59-.8 1.35-.8 2.276 0 .886.258 1.62.774 2.203.517.583 1.21.874 2.083.874.903 0 1.628-.304 2.175-.911zm-.588-2.222c0-.552-.118-1.025-.354-1.42-.276-.477-.671-.715-1.182-.715-.532 0-.935.238-1.21.715-.237.395-.354.876-.354 1.444 0 .552.118 1.025.353 1.42.286.477.684.715 1.198.715.504 0 .898-.242 1.182-.728.246-.402.367-.879.367-1.43zM100 19.188h1.185c-.057-.353-.086-.829-.086-1.426v-2.203c0-1.65-.778-2.474-2.33-2.474-.803 0-1.484.173-2.036.517l.269.873c.445-.295.962-.443 1.547-.443.823 0 1.233.393 1.233 1.18v.113c-1.1-.01-1.953.18-2.56.565-.608.386-.91.943-.91 1.674 0 .483.154.89.464 1.218.341.36.795.542 1.355.542.75 0 1.329-.276 1.734-.825h.037l.098.689zm-.185-2.055v-.923c-1.456-.025-2.184.377-2.184 1.206 0 .312.083.545.253.701a.92.92 0 00.645.233c.29 0 .56-.092.807-.276a1.133 1.133 0 00.479-.942zm7.698 2.055h1.171a24.99 24.99 0 01-.047-1.611v-7.114h-1.321v3.433h-.025c-.317-.542-.875-.812-1.672-.812-.726 0-1.335.28-1.832.837-.514.6-.77 1.383-.77 2.351 0 .902.236 1.637.708 2.203.472.566 1.068.849 1.783.849.895 0 1.532-.366 1.906-1.097h.037l.062.96zm-.197-2.522v-.998c0-.172-.012-.312-.036-.418a1.516 1.516 0 00-.478-.806 1.29 1.29 0 00-.882-.326c-.493 0-.878.197-1.161.591-.281.395-.423.899-.423 1.514 0 .591.134 1.07.405 1.44.286.393.671.59 1.154.59.433 0 .779-.164 1.042-.492.255-.304.379-.67.379-1.095zm11.873 1.747c.521-.591.782-1.345.782-2.265 0-.893-.254-1.624-.757-2.19-.529-.582-1.231-.873-2.101-.873-.905 0-1.623.296-2.157.886-.534.59-.799 1.35-.799 2.276 0 .886.258 1.62.774 2.203.519.583 1.213.874 2.083.874.905 0 1.628-.304 2.175-.911zm-.586-2.222c0-.552-.118-1.025-.354-1.42-.278-.477-.671-.715-1.185-.715-.529 0-.932.238-1.21.715-.237.395-.354.876-.354 1.444 0 .552.119 1.025.354 1.42.286.477.684.715 1.198.715.503 0 .9-.242 1.185-.728.243-.402.366-.879.366-1.43zm7.145 2.997h1.318v-3.583c0-.878-.226-1.539-.683-1.982-.367-.361-.828-.542-1.38-.542-.44 0-.839.113-1.198.337-.3.191-.529.431-.684.722h-.036l-.062-.936h-1.159c.032.617.047 1.187.047 1.712v4.27h1.321V15.64c0-.392.122-.734.366-1.025.245-.29.561-.435.952-.435.8 0 1.198.528 1.198 1.583v3.426zm10.199-4.985h-1.452v2.905c0 .739.258 1.108.769 1.108.237 0 .433-.02.588-.062l.034 1.009c-.26.099-.603.148-1.025.148-.521 0-.927-.16-1.22-.48-.295-.32-.441-.857-.441-1.612v-3.016h-.867v-.996h.867v-1.096l1.294-.394v1.489h1.453v.997zm5.666 4.985h1.321v-3.556c0-.886-.224-1.556-.671-2.006-.359-.362-.811-.542-1.357-.542-.772 0-1.368.327-1.783.983h-.026v-3.604h-1.318v8.724h1.318V15.59c0-.188.023-.348.062-.479.229-.621.647-.932 1.259-.932.798 0 1.195.537 1.195 1.609v3.4zm8.528-3.273c0 .238-.017.439-.049.602h-3.958c.018.591.207 1.042.573 1.354.335.28.767.419 1.296.419.585 0 1.119-.094 1.6-.283l.207.923c-.563.247-1.225.37-1.992.37-.919 0-1.644-.273-2.167-.819-.527-.545-.787-1.277-.787-2.196 0-.902.243-1.653.732-2.252.512-.64 1.203-.96 2.076-.96.854 0 1.502.32 1.94.96.354.508.529 1.136.529 1.882zm-1.515-1.366c.179.287.266.627.256 1.022h-2.748c.043-.402.173-.746.392-1.034.268-.362.619-.542 1.05-.542.472 0 .821.185 1.05.554zM26.212 17.944c1.805.136 3.658-.917 4.816-2.293 1.11-1.398 1.87-3.3 1.659-5.23-1.607.072-3.616 1.12-4.773 2.487-1.024 1.205-1.938 3.18-1.702 5.036zm13.224 16.419c-.052-.018-4.302-1.651-4.344-6.591-.036-4.091 3.301-6.097 3.503-6.218l.004-.002c-1.92-2.818-4.894-3.203-5.939-3.233-1.528-.162-3.028.437-4.254.927-.778.311-1.446.578-1.94.578-.562 0-1.249-.278-2.018-.59-1.007-.407-2.154-.87-3.351-.846-2.718.042-5.26 1.626-6.655 4.087-2.878 5.017-.732 12.39 2.026 16.444 1.379 1.986 2.99 4.204 5.1 4.126.957-.04 1.636-.328 2.337-.625.811-.344 1.652-.7 2.988-.7 1.26 0 2.065.345 2.838.677.74.318 1.452.622 2.505.598 2.215-.036 3.61-1.995 4.94-3.999 1.594-2.276 2.234-4.518 2.26-4.633z" fill="#fff"/></svg>