<svg viewbox="0 0 168 58" fill="none" xmlns="http://www.w3.org/2000/svg"><rect width="168" height="57" rx="7.2" fill="#000"/><path d="M13.605 23.255c-.473.15-.78.632-.78 1.363l.004 23.008c0 .723.296 1.198.757 1.357L26.352 36.11 13.605 23.255z" fill="url(#paint0_linear)"/><path d="M13.586 48.983c.33.113.746.06 1.198-.19l15.579-8.64-4.011-4.044-12.766 12.874z" fill="url(#paint1_linear)"/><path d="M30.365 40.154l5.312-2.946c1.077-.6 1.077-1.574 0-2.172l-5.332-2.957-3.993 4.027 4.013 4.048z" fill="url(#paint2_linear)"/><path d="M30.345 32.08L14.784 23.45c-.441-.243-.848-.3-1.178-.196l12.746 12.851 3.992-4.027z" fill="url(#paint3_linear)"/><path fill-rule="evenodd" clip-rule="evenodd" d="M101.854 41.609c-.809-.076-.98-.226-.98-1.19l.006-14.075c.098-.869.326-1.14 1.089-1.586h-3.52l-1.843.896h1.915l.01 14.756v.553c0 .448-.08.552-.516 1.118l-.151.197h4.337l.91-.547a18.77 18.77 0 00-.632-.061c-.208-.018-.416-.036-.625-.061zm-43.627.128l-3.3.762c-1.336.212-2.536.4-3.808.4-6.363 0-8.788-4.724-8.788-8.421 0-4.515 3.435-8.701 9.32-8.701 1.244 0 2.442.184 3.533.484 1.65.468 2.461 1.039 2.971 1.397l.072.05-1.917 1.836-.808.183.576-.926-.005-.005c-.781-.77-2.215-2.182-4.932-2.182-3.64 0-6.385 2.79-6.385 6.863 0 4.376 3.135 8.49 8.163 8.49 1.478 0 2.238-.298 2.929-.578v-3.75l-3.484.188 1.847-1H59.1l-.598.58c-.161.139-.183.186-.228.371-.024.212-.047.886-.047 1.123v2.836zm7.566.861c-3.912 0-6.002-3.072-6.002-5.853 0-3.25 2.632-6.03 6.373-6.03 3.616 0 5.88 2.856 5.88 5.855 0 2.93-2.237 6.028-6.25 6.028zm3.816-4.76c0 .967-.147 1.958-.737 2.752-.569.793-1.55 1.263-2.51 1.263-2.978 0-4.185-4.044-4.185-6.496 0-1.07.171-2.162 1.134-3.03.59-.523 1.4-.843 2.214-.843 3.049 0 4.084 4.169 4.084 6.355zm9.281 4.76c-3.912 0-6.005-3.072-6.005-5.853 0-3.25 2.632-6.03 6.374-6.03 3.618 0 5.884 2.856 5.884 5.855 0 2.93-2.24 6.028-6.253 6.028zm3.817-4.76c0 .967-.144 1.958-.74 2.752-.566.793-1.548 1.263-2.51 1.263-2.983 0-4.185-4.044-4.185-6.496 0-1.07.171-2.162 1.132-3.03a3.416 3.416 0 012.219-.843c3.052 0 4.084 4.169 4.084 6.355zm11.441-5.906c.566.469 1.745 1.463 1.745 3.349 0 1.837-1.028 2.704-2.064 3.524l-.044.045c-.308.31-.646.653-.646 1.169 0 .54.358.836.624 1.057l.015.012.89.692c1.08.92 2.066 1.764 2.066 3.477 0 2.335-2.24 4.689-6.474 4.689-3.566 0-5.29-1.713-5.29-3.55 0-.893.44-2.159 1.896-3.026 1.506-.928 3.538-1.063 4.655-1.137l.045-.002-.052-.067c-.332-.43-.688-.893-.688-1.624 0-.377.1-.617.208-.875l.025-.06.013-.032-.017.001c-.264.026-.529.05-.77.05-2.61 0-4.085-1.963-4.085-3.898 0-1.141.516-2.407 1.577-3.325 1.403-1.165 3.076-1.366 4.405-1.366h5.072l-1.577.897h-1.529zm-2.31 10.991c.244 0 .365 0 .567.027 1.867 1.342 2.678 2.01 2.678 3.275 0 1.538-1.254 2.68-3.617 2.68-2.63 0-4.33-1.268-4.33-3.028 0-1.762 1.575-2.356 2.12-2.557 1.03-.348 2.359-.397 2.582-.397zm1.274-4.689c.569-.573.618-1.364.618-1.813 0-1.785-1.055-4.565-3.1-4.565-.639 0-1.33.323-1.722.822-.417.517-.541 1.188-.541 1.833 0 1.662.96 4.418 3.075 4.418.617 0 1.28-.302 1.67-.695zm19.859 2.377l-1.177 1.12c-.091.05-.181.103-.271.156a6.454 6.454 0 01-.542.294c-.817.375-1.648.469-2.387.469-.786 0-2.019-.052-3.276-.969-1.747-1.24-2.51-3.373-2.51-5.232 0-3.847 3.106-5.735 5.639-5.735.886 0 1.795.224 2.534.695 1.216.811 1.541 1.862 1.718 2.437l.006.02-5.785 2.357-1.895.148c.614 3.155 2.73 4.99 5.069 4.99 1.168 0 2.035-.384 2.831-.78 0 0 .16-.085.046.03zm-2.776-6.942c0 .346-.245.495-.714.667l-4.48 1.96c-.009-.152-.02-.304-.032-.456-.021-.292-.043-.579-.043-.854 0-2.68 1.846-3.453 2.829-3.453 1.327 0 2.44 1.145 2.44 2.136zm9.87 7.048v6.321h-1.245V30.953h1.245v1.832c.811-1.184 2.292-2.122 4.014-2.122 3.087 0 5.166 2.361 5.166 6.1 0 3.713-2.079 6.123-5.166 6.123-1.625 0-3.081-.845-4.014-2.169zm3.804-8.92c2.582 0 4.038 2.148 4.038 4.966 0 2.821-1.456 4.989-4.038 4.989-1.604 0-3.138-1.317-3.804-2.428v-5.149c.666-1.108 2.2-2.379 3.804-2.379zm7.076-5.285h1.244v16.085h-1.244V26.512zm11.384 14.993c.046.297.109.653.192 1.057h1.435a7.56 7.56 0 01-.248-1.153 9.202 9.202 0 01-.071-1.2v-5.743c0-1.23-.415-2.17-1.242-2.821-.828-.658-1.926-.987-3.283-.987-1.362 0-2.468.334-3.312 1-.849.666-1.248 1.438-1.202 2.317l.027.063h1.274c0-.652.289-1.194.864-1.63.58-.429 1.341-.649 2.28-.649 1.026 0 1.818.24 2.383.717.562.475.844 1.13.844 1.963v1.447h-2.904c-1.556 0-2.813.323-3.786.974-.973.648-1.461 1.495-1.461 2.54 0 1.044.337 1.87 1.007 2.48.671.61 1.613.91 2.826.91 1.007 0 1.741-.204 2.514-.62.772-.415 1.377-.94 1.804-1.572 0 .308.022.611.059.907zm-4.225.142c1.057 0 1.817-.238 2.594-.71.772-.468 1.297-1.079 1.572-1.819v-2.236h-2.917c-1.115 0-2.037.249-2.763.75-.727.5-1.095 1.106-1.095 1.81 0 .664.233 1.195.697 1.597.465.407 1.101.608 1.912.608zm9.062 4.544c-.288 0-.742-.073-1.009-.193l-.213 1.158c.31.097.841.169 1.244.169 1.341 0 2.318-.704 2.938-2.168l5.981-14.204h-1.408l-4.166 10.174-4.206-10.174h-1.389l4.904 11.74-.908 2.075c-.476 1.11-1.007 1.423-1.768 1.423zM46.402 9.146c-2.308 0-4.164 1.606-4.164 4.104 0 2.487 1.856 4.116 4.164 4.116a4.285 4.285 0 003.26-1.452v-2.962h-3.76v1.226h2.38v1.225c-.357.345-1.07.714-1.88.714-1.57 0-2.736-1.214-2.736-2.867 0-1.677 1.167-2.866 2.736-2.866.88 0 1.63.463 2.058 1.058l1.13-.655c-.63-.903-1.641-1.641-3.188-1.641zm4.98.13v7.935h5.437v-1.225h-4.045v-2.213h3.962v-1.225h-3.962v-2.045h4.045V9.276h-5.436zm9.288 7.935v-6.708h-2.403V9.276h6.198v1.227h-2.403v6.708H60.67zm10.023-7.935h-1.391v7.935h1.391V9.276zm3.877 7.935v-6.708h-2.403V9.276h6.197v1.227h-2.402v6.708H74.57zm12.344-8.065c-2.38 0-4.057 1.736-4.057 4.104 0 2.367 1.676 4.104 4.057 4.104 2.366 0 4.056-1.737 4.056-4.104 0-2.368-1.69-4.104-4.056-4.104zm2.628 4.104c0-1.642-1.035-2.866-2.628-2.866-1.607 0-2.63 1.224-2.63 2.866 0 1.63 1.023 2.867 2.63 2.867 1.593 0 2.628-1.238 2.628-2.867zm4.444-1.713l4.14 5.674h1.345V9.276h-1.392v5.497l-4.056-5.497h-1.428v7.935h1.391v-5.674z" fill="#fff"/><defs><linearGradient id="paint0_linear" x1="12.826" y1="23.255" x2="12.826" y2="48.983" gradientUnits="userSpaceOnUse"><stop stop-color="#1E79AF"/><stop offset="1" stop-color="#63FFD3"/></linearGradient><linearGradient id="paint1_linear" x1="20.91" y1="32.838" x2="11.055" y2="46.051" gradientUnits="userSpaceOnUse"><stop stop-color="#DC4057"/><stop offset="1" stop-color="#9E36BB"/></linearGradient><linearGradient id="paint2_linear" x1="26.462" y1="32.079" x2="26.462" y2="39.978" gradientUnits="userSpaceOnUse"><stop stop-color="#FF9676"/><stop offset="1" stop-color="#FFD074"/></linearGradient><linearGradient id="paint3_linear" x1="8.157" y1="28.531" x2="17.982" y2="43.973" gradientUnits="userSpaceOnUse"><stop stop-color="#51C6AD"/><stop offset="1" stop-color="#D5FFA1"/></linearGradient></defs></svg>