<svg viewbox="0 0 45 45" fill="none" xmlns="http://www.w3.org/2000/svg"><path fill-rule="evenodd" clip-rule="evenodd" d="M27.083 4.513C24.383 1.603 20.627 0 16.507 0H15.39C7.093 0 .314 6.6.014 14.826c-.001.012-.004.022-.006.033-.004.016-.008.031-.008.047v7.466c0 .007.002.014.004.02.002.007.004.013.004.019a15.367 15.367 0 003.834 9.998.678.678 0 00.687.206l24.74-6.759a.68.68 0 00.475-.473c.277-1 .457-2.029.534-3.057l.518-6.922c.308-4.111-1.01-7.98-3.713-10.891zM1.357 15.48l14.136-2.36c1.15-.192 2.065.02 2.51.58.443.562.437 1.5-.015 2.575l-2.213 5.254-14.418.155v-6.204zm27.568 6.745l.518-6.923c.279-3.73-.912-7.235-3.355-9.867-2.44-2.63-5.843-4.079-9.58-4.079h-1.119c-7.299 0-13.308 5.605-13.966 12.737l13.847-2.312c1.677-.28 3.027.102 3.797 1.078.771.976.832 2.376.171 3.943l-2.385 5.664a.678.678 0 01-.618.416l-14.843.16a14.005 14.005 0 003.194 8.149l23.948-6.542c.199-.797.33-1.611.39-2.424z" fill="#fff"/><path fill-rule="evenodd" clip-rule="evenodd" d="M21.038 17.645a2.717 2.717 0 012.715-2.715 2.718 2.718 0 012.714 2.715 2.717 2.717 0 01-2.714 2.714 2.717 2.717 0 01-2.715-2.714zm1.357 0c0 .748.61 1.357 1.358 1.357.748 0 1.357-.609 1.357-1.357s-.609-1.357-1.357-1.357c-.749 0-1.358.608-1.358 1.357z" fill="#fff"/><path d="M16.767 14.45a.679.679 0 00-.96 0l-2.035 2.037a.678.678 0 10.96.96l2.035-2.037a.678.678 0 000-.96zM28.203 26.776L6.63 32.666a.679.679 0 00.357 1.31l21.573-5.89a.679.679 0 00-.357-1.31z" fill="#fff"/></svg>