<svg width="30" height="28" fill="none" xmlns="http://www.w3.org/2000/svg"><path d="M29.056 11.366L15.518 1.454a.742.742 0 00-.876 0L1.104 11.366a.742.742 0 00.876 1.198l13.1-9.592 13.1 9.591a.738.738 0 001.037-.16.742.742 0 00-.16-1.037z" fill="#fff"/><path d="M25.469 12.732a.742.742 0 00-.742.742v11.811h-5.936v-6.447a3.715 3.715 0 00-3.71-3.71 3.715 3.715 0 00-3.711 3.71v6.447H5.433V13.474a.742.742 0 10-1.484 0v12.553c0 .41.332.742.742.742h7.42a.742.742 0 00.743-.742v-7.19c0-1.227.998-2.226 2.226-2.226a2.23 2.23 0 012.226 2.227v7.19c0 .02.002.04.003.056.03.384.35.685.74.685h7.42c.41 0 .742-.332.742-.742V13.474a.742.742 0 00-.742-.742z" fill="#fff"/></svg>