<svg width="79" height="24" fill="none" xmlns="http://www.w3.org/2000/svg"><path fill-rule="evenodd" clip-rule="evenodd" d="M14.238 0c.634 0 1.122.137 1.462.411.34.275.511.663.511 1.166v.994c0 .503-.17.886-.51 1.149-.341.263-.829.394-1.463.394-.611 0-1.087-.131-1.428-.394-.34-.263-.51-.646-.51-1.149v-.994c0-.503.17-.891.51-1.166.341-.274.817-.411 1.428-.411zM6.36 22.629c.858-.846 1.286-2.149 1.286-3.909V1.029H4.652V18.96c0 .869-.188 1.491-.564 1.869-.376.377-.94.565-1.692.565-.94 0-1.738-.057-2.396-.171v2.434c.164.046.488.097.97.154.48.058.91.086 1.285.086 1.88 0 3.249-.423 4.106-1.268zm9.392.857V6.754h-2.995v16.732h2.995zm9.868-16.457c-.8.457-1.504 1.108-2.115 1.954V.069h-2.995v17.588c0 2.103.481 3.669 1.445 4.697.963 1.029 2.478 1.543 4.546 1.543 2.114 0 3.677-.531 4.687-1.594 1.01-1.063 1.515-2.634 1.515-4.714V12.17c0-1.897-.4-3.342-1.198-4.337-.799-.994-1.927-1.491-3.383-1.491-.87 0-1.704.228-2.502.686zm1.797 1.92c-.681 0-1.374.251-2.08.754-.704.503-1.315 1.188-1.832 2.057V18c0 1.12.264 1.977.793 2.571.529.595 1.263.892 2.203.892 2.138 0 3.207-1.177 3.207-3.532v-5.348c0-2.423-.764-3.634-2.291-3.634zm12.863 14.537V.069h-2.995v23.417h2.995zM50.854 6.343c1.973 0 3.477.526 4.51 1.577 1.034 1.051 1.551 2.571 1.551 4.56v3.531h-9.057v2.023c0 1.166.288 2.006.864 2.52.575.515 1.486.772 2.73.772 1.223 0 2.75-.183 4.582-.549l.07 2.537c-2.184.389-3.747.583-4.687.583-2.325 0-4-.491-5.021-1.474-1.022-.983-1.533-2.503-1.533-4.56V12.48c0-1.989.499-3.509 1.497-4.56.999-1.051 2.497-1.577 4.494-1.577zm-2.185 3.274c.54-.56 1.268-.84 2.185-.84.94 0 1.685.286 2.238.857.552.572.828 1.406.828 2.503v1.543h-6.062v-1.646c0-1.051.27-1.857.81-2.417zM78.882.057h-17.62v23.714h17.62V.057zm-8.81 10c-4.055 0-7.342-3.198-7.342-7.143h3.102c0 2.278 1.899 4.125 4.24 4.125 2.342 0 4.24-1.847 4.24-4.125h3.102c0 3.945-3.287 7.143-7.342 7.143z" fill="#fff"/></svg>