<svg  viewbox="0 0 112 36" fill="none" xmlns="http://www.w3.org/2000/svg"><path fill-rule="evenodd" clip-rule="evenodd" d="M20.185 0c.9 0 1.59.2 2.073.6.483.4.725.967.725 1.7v1.45c0 .733-.242 1.292-.725 1.675-.482.383-1.174.575-2.073.575-.866 0-1.54-.192-2.023-.575-.483-.383-.725-.942-.725-1.675V2.3c0-.733.241-1.3.724-1.7.483-.4 1.158-.6 2.024-.6zM9.018 33c1.216-1.233 1.824-3.133 1.824-5.7V1.5H6.595v26.15c0 1.267-.266 2.175-.8 2.725-.532.55-1.332.825-2.398.825-1.332 0-2.464-.083-3.397-.25v3.55c.233.067.691.142 1.374.225.683.083 1.29.125 1.824.125 2.664 0 4.605-.617 5.82-1.85zm13.315 1.25V9.85h-4.246v24.4h4.246zm13.99-24c-1.133.667-2.132 1.617-2.998 2.85V.1h-4.247v25.65c0 3.067.683 5.35 2.049 6.85 1.366 1.5 3.514 2.25 6.445 2.25 2.998 0 5.213-.775 6.645-2.325 1.432-1.55 2.148-3.842 2.148-6.875v-7.9c0-2.767-.566-4.875-1.698-6.325-1.133-1.45-2.732-2.175-4.797-2.175-1.232 0-2.414.333-3.547 1zm2.548 2.8c-.966 0-1.949.367-2.948 1.1-.999.733-1.865 1.733-2.598 3v9.1c0 1.633.375 2.883 1.124 3.75.75.867 1.79 1.3 3.123 1.3 3.031 0 4.547-1.717 4.547-5.15v-7.8c0-3.533-1.083-5.3-3.248-5.3zm18.236 21.2V.1h-4.246v34.15h4.247zm14.99-25c2.797 0 4.929.767 6.395 2.3 1.465 1.533 2.198 3.75 2.198 6.65v5.15H67.85v2.95c0 1.7.407 2.925 1.224 3.675.816.75 2.106 1.125 3.872 1.125 1.732 0 3.897-.267 6.495-.8l.1 3.7c-3.098.567-5.313.85-6.645.85-3.298 0-5.671-.717-7.12-2.15-1.449-1.433-2.173-3.65-2.173-6.65V18.2c0-2.9.708-5.117 2.123-6.65 1.416-1.533 3.54-2.3 6.37-2.3zm-3.098 4.775c.766-.817 1.798-1.225 3.097-1.225 1.333 0 2.39.417 3.173 1.25.783.833 1.174 2.05 1.174 3.65v2.25H67.85v-2.4c0-1.533.383-2.708 1.149-3.525z" fill="#1A1A1A"/><path fill="#419D78" d="M86.852.083h24.981v34.583H86.852z"/><path fill-rule="evenodd" clip-rule="evenodd" d="M88.934 4.25c0 5.753 4.66 10.417 10.409 10.417 5.748 0 10.409-4.664 10.409-10.417h-4.398a6.014 6.014 0 01-6.011 6.015 6.013 6.013 0 01-6.011-6.015h-4.398z" fill="#fff"/></svg>