<svg viewbox="0 0 20 20" fill="none" xmlns="http://www.w3.org/2000/svg"><path fill-rule="evenodd" clip-rule="evenodd" d="M16.546 3H3.455C2.103 3 1 4.048 1 5.333v9.334C1 15.952 2.103 17 3.455 17h13.09C17.898 17 19 15.952 19 14.667V5.333C19 4.048 17.897 3 16.546 3zM2.636 5.333c0-.426.37-.777.819-.777h13.09c.449 0 .819.351.819.777v9.334c0 .426-.37.777-.818.777H3.455c-.448 0-.819-.351-.819-.777V5.333z" fill="#000"/><path d="M10 9.828l7.713-5.132a.846.846 0 011.14.191c.258.352.168.837-.202 1.084l-8.182 5.444a.853.853 0 01-.938 0L1.349 5.971a.754.754 0 01-.201-1.084.845.845 0 011.14-.19L10 9.827z" fill="#000"/></svg>