<svg width="22" height="35" viewBox="0 0 22 35" fill="none" xmlns="http://www.w3.org/2000/svg">
<path fill-rule="evenodd" clip-rule="evenodd" d="M11 35C16.5228 35 21 30.5228 21 25C21 19.4772 16.5228 15 11 15C5.47715 15 1 19.4772 1 25C1 30.5228 5.47715 35 11 35Z" fill="#515151"/>
<path fill-rule="evenodd" clip-rule="evenodd" d="M11 31C14.3137 31 17 28.3137 17 25C17 21.6863 14.3137 19 11 19C7.68629 19 5 21.6863 5 25C5 28.3137 7.68629 31 11 31Z" fill="black"/>
<path fill-rule="evenodd" clip-rule="evenodd" d="M16.226 20.8127C15.207 21.8883 14.1183 22.8682 13.0292 23.7354C12.6474 24.0394 12.2922 24.3081 11.9722 24.5392C11.7772 24.68 11.6351 24.7784 11.5547 24.8321C11.2188 25.056 10.7812 25.056 10.4453 24.8321C10.3649 24.7784 10.2228 24.68 10.0278 24.5392C9.70783 24.3081 9.3526 24.0394 8.97082 23.7354C7.88175 22.8682 6.793 21.8883 5.77405 20.8127C2.8024 17.676 1 14.3716 1 11C1 5.47715 5.47715 1 11 1C16.5228 1 21 5.47715 21 11C21 14.3716 19.1976 17.676 16.226 20.8127Z" fill="white"/>
<path d="M13.0292 23.7354L12.4062 22.9531L12.4062 22.9531L13.0292 23.7354ZM16.226 20.8127L15.5 20.125L15.5 20.125L16.226 20.8127ZM11.9722 24.5392L11.3867 23.7285L11.3867 23.7285L11.9722 24.5392ZM11.5547 24.8321L12.1094 25.6641L12.1094 25.6641L11.5547 24.8321ZM10.4453 24.8321L9.8906 25.6641L9.8906 25.6641L10.4453 24.8321ZM10.0278 24.5392L10.6133 23.7285L10.6133 23.7285L10.0278 24.5392ZM8.97082 23.7354L9.59375 22.9531L9.59375 22.9531L8.97082 23.7354ZM5.77405 20.8127L6.5 20.125L6.5 20.125L5.77405 20.8127ZM13.6521 24.5177C14.7736 23.6246 15.8975 22.6135 16.9519 21.5005L15.5 20.125C14.5165 21.1631 13.4629 22.1117 12.4062 22.9531L13.6521 24.5177ZM12.5577 25.3499C12.8909 25.1092 13.2586 24.831 13.6521 24.5177L12.4062 22.9531C12.0362 23.2478 11.6934 23.507 11.3867 23.7285L12.5577 25.3499ZM12.1094 25.6641C12.2037 25.6012 12.3566 25.4951 12.5577 25.3499L11.3867 23.7285C11.1978 23.865 11.0666 23.9556 11 24L12.1094 25.6641ZM9.8906 25.6641C10.5624 26.112 11.4376 26.112 12.1094 25.6641L11 24H11L9.8906 25.6641ZM9.4423 25.3499C9.64336 25.4951 9.79629 25.6012 9.8906 25.6641L11 24C10.9334 23.9556 10.8022 23.865 10.6133 23.7285L9.4423 25.3499ZM8.3479 24.5177C8.74136 24.831 9.10906 25.1092 9.4423 25.3499L10.6133 23.7285C10.3066 23.507 9.96384 23.2478 9.59375 22.9531L8.3479 24.5177ZM5.04809 21.5005C6.10253 22.6135 7.22639 23.6246 8.3479 24.5177L9.59375 22.9531C8.53711 22.1117 7.48347 21.1631 6.5 20.125L5.04809 21.5005ZM0 11C0 14.7369 1.99388 18.2766 5.04809 21.5005L6.5 20.125C3.61092 17.0754 2 14.0063 2 11H0ZM11 0C4.92487 0 0 4.92487 0 11H2C2 6.02944 6.02944 2 11 2V0ZM22 11C22 4.92487 17.0751 0 11 0V2C15.9706 2 20 6.02944 20 11H22ZM16.9519 21.5005C20.0061 18.2766 22 14.7369 22 11H20C20 14.0063 18.3891 17.0754 15.5 20.125L16.9519 21.5005Z" fill="#419D78"/>
<path fill-rule="evenodd" clip-rule="evenodd" d="M11 13C12.6569 13 14 11.6569 14 10C14 8.34315 12.6569 7 11 7C9.34315 7 8 8.34315 8 10C8 11.6569 9.34315 13 11 13Z" fill="white" stroke="#419D78" stroke-width="2"/>
</svg>
