<svg viewBox="0 0 45 45" fill="none" xmlns="http://www.w3.org/2000/svg">
<path d="M23.5 44.9842C22.2297 44.9842 21.2 43.9545 21.2 42.6842C21.2 41.414 22.2297 40.3842 23.5 40.3842H44C45.2702 40.3842 46.3 41.414 46.3 42.6842C46.3 43.9545 45.2702 44.9842 44 44.9842H23.5Z" fill="white"/>
<path fill-rule="evenodd" clip-rule="evenodd" d="M39.0218 0.983101C36.5499 0.309693 33.913 1.02803 32.1103 2.86085L3.63808 31.8082C3.34818 32.103 3.14308 32.4704 3.04436 32.8719L0.766585 42.135C0.351967 43.8212 1.88377 45.3411 3.56663 44.9133L12.6777 42.5975C13.0851 42.494 13.4562 42.2809 13.7509 41.9813L42.2231 13.0339C44.0141 11.213 44.7112 8.56808 44.058 6.08976C43.4028 3.60344 41.4856 1.65428 39.0218 0.983101ZM39.6099 7.26207C39.8503 8.1743 39.594 9.14704 38.9436 9.80822L10.9219 38.2976L6.14892 39.5107L7.36048 34.5836L35.3898 6.08652C36.0284 5.43729 36.9498 5.18627 37.8128 5.42136C38.6839 5.65868 39.3716 6.35784 39.6099 7.26207Z" fill="white"/>
</svg>
