<svg viewbox="0 0 20 20" fill="none" xmlns="http://www.w3.org/2000/svg"><path fill-rule="evenodd" clip-rule="evenodd" d="M18.113 18.295c.51-.467.798-1.127.796-1.818v-2.442a2.455 2.455 0 00-2.112-2.48 9.706 9.706 0 01-2.127-.53 2.454 2.454 0 00-2.588.553l-.59.59A12.273 12.273 0 017.74 8.416l.587-.586a2.456 2.456 0 00.556-2.593 9.683 9.683 0 01-.528-2.118A2.456 2.456 0 005.9 1H3.453A2.455 2.455 0 001.01 3.676a17.022 17.022 0 002.64 7.464 16.764 16.764 0 005.157 5.155 17.002 17.002 0 007.411 2.635 2.462 2.462 0 001.895-.635zm-.84-4.29v2.475a.82.82 0 01-.893.822 15.361 15.361 0 01-6.69-2.384 15.146 15.146 0 01-4.663-4.661 15.381 15.381 0 01-2.389-6.742.818.818 0 01.815-.88l2.455.001a.82.82 0 01.826.704c.11.84.318 1.67.616 2.47.113.302.041.639-.183.866L6.13 7.712a.818.818 0 00-.133.982 13.909 13.909 0 005.216 5.216c.32.182.723.128.983-.132l1.04-1.04a.817.817 0 01.859-.18c.802.299 1.633.506 2.48.618a.816.816 0 01.696.83z" fill="#000"/></svg>