<svg viewBox="0 0 20 20" fill="none" xmlns="http://www.w3.org/2000/svg">
<path fill-rule="evenodd" clip-rule="evenodd" d="M11.1039 17.1569C11.8376 16.5788 12.571 15.9255 13.2575 15.2085C15.2594 13.1173 16.4737 10.9144 16.4737 8.66667C16.4737 4.98477 13.4575 2 9.73684 2C6.01619 2 3 4.98477 3 8.66667C3 10.9144 4.21425 13.1173 6.2162 15.2085C6.90265 15.9255 7.63612 16.5788 8.36982 17.1569C8.62702 17.3596 8.86633 17.5387 9.08188 17.6928C9.21324 17.7867 9.30896 17.8523 9.36315 17.888C9.58944 18.0373 9.88424 18.0373 10.1105 17.888C10.1647 17.8523 10.2604 17.7867 10.3918 17.6928C10.6074 17.5387 10.8467 17.3596 11.1039 17.1569ZM12.2794 14.2915C11.6396 14.9599 10.952 15.5723 10.2646 16.1139C10.077 16.2618 9.90014 16.3958 9.7369 16.5151C9.57366 16.3958 9.39681 16.2618 9.20919 16.1139C8.52183 15.5723 7.83425 14.9599 7.19438 14.2915C5.40686 12.4243 4.34743 10.5023 4.34743 8.66669C4.34743 5.72117 6.76038 3.33335 9.7369 3.33335C12.7134 3.33335 15.1264 5.72117 15.1264 8.66669C15.1264 10.5023 14.0669 12.4243 12.2794 14.2915Z" fill="black"/>
<path fill-rule="evenodd" clip-rule="evenodd" d="M7.04102 8.66667C7.04102 10.1394 8.24749 11.3333 9.73575 11.3333C11.224 11.3333 12.4305 10.1394 12.4305 8.66667C12.4305 7.19391 11.224 6 9.73575 6C8.24749 6 7.04102 7.19391 7.04102 8.66667ZM11.0835 8.66669C11.0835 9.40307 10.4803 10 9.73616 10C8.99202 10 8.38879 9.40307 8.38879 8.66669C8.38879 7.93031 8.99202 7.33335 9.73616 7.33335C10.4803 7.33335 11.0835 7.93031 11.0835 8.66669Z" fill="black"/>
</svg>
