<svg  viewBox="0 0 20 20" fill="none" xmlns="http://www.w3.org/2000/svg">
<path fill-rule="evenodd" clip-rule="evenodd" d="M11.7905 7.47238L7.88383 13.389C6.35117 15.7101 3.77484 17.0958 0.992405 17.0958V15.5321C3.24751 15.5321 5.3356 14.4089 6.57788 12.5276L10.4846 6.61102C12.0173 4.28986 14.5934 2.90421 17.376 2.90421H17.9971L16.1977 1.1058L17.3041 0L20.9922 3.68607L17.3041 7.37213L16.1977 6.26633L17.9971 4.46793H17.376C15.1208 4.46793 13.0327 5.59113 11.7905 7.47238ZM17.3041 20L20.9922 16.3139L17.3041 12.6279L16.1977 13.7337L17.9971 15.5321H17.376C15.1208 15.5321 13.0327 14.4089 11.7905 12.5276L11.0588 11.4195L10.1215 12.8391L10.4846 13.389C12.0173 15.71 14.5934 17.0958 17.376 17.0958H17.9971L16.1977 18.8942L17.3041 20ZM8.24667 7.1608L7.30927 8.58047L6.57767 7.47238C5.33538 5.59113 3.2473 4.46793 0.992188 4.46793V2.90421C3.77462 2.90421 6.3508 4.28986 7.88346 6.61102L8.24667 7.1608Z" fill="white"/>
</svg>
