<svg viewBox="0 0 20 20" fill="none" xmlns="http://www.w3.org/2000/svg">
<path d="M2.81818 5.90907C2.36631 5.90907 2 5.54276 2 5.09089C2 4.63902 2.36631 4.27271 2.81818 4.27271H17.5455C17.9973 4.27271 18.3636 4.63902 18.3636 5.09089C18.3636 5.54276 17.9973 5.90907 17.5455 5.90907H2.81818Z" fill="black"/>
<path fill-rule="evenodd" clip-rule="evenodd" d="M6.90844 5.90909C7.36031 5.90909 7.72662 5.54278 7.72662 5.09091V3.45455C7.72662 3.00268 8.09293 2.63636 8.5448 2.63636H11.8175C12.2694 2.63636 12.6357 3.00268 12.6357 3.45455V5.09091C12.6357 5.54278 13.002 5.90909 13.4539 5.90909C13.9058 5.90909 14.2721 5.54278 14.2721 5.09091V3.45455C14.2721 2.09894 13.1731 1 11.8175 1H8.5448C7.18919 1 6.09025 2.09894 6.09025 3.45455V5.09091C6.09025 5.54278 6.45657 5.90909 6.90844 5.90909ZM15.9094 4.27271C15.4576 4.27271 15.0913 4.63902 15.0913 5.09089V16.5454C15.0913 16.9973 14.725 17.3636 14.2731 17.3636H6.09126C5.63939 17.3636 5.27308 16.9973 5.27308 16.5454V5.09089C5.27308 4.63902 4.90677 4.27271 4.4549 4.27271C4.00303 4.27271 3.63672 4.63902 3.63672 5.09089V16.5454C3.63672 17.901 4.73566 19 6.09126 19H14.2731C15.6287 19 16.7276 17.901 16.7276 16.5454V5.09089C16.7276 4.63902 16.3613 4.27271 15.9094 4.27271Z" fill="black"/>
</svg>
