<svg viewbox="0 0 20 20" fill="none" xmlns="http://www.w3.org/2000/svg"><path d="M17 17.2a.79.79 0 01-.778.8.79.79 0 01-.778-.8v-1.6c0-1.325-1.044-2.4-2.333-2.4H6.89c-1.289 0-2.333 1.075-2.333 2.4v1.6a.79.79 0 01-.778.8.79.79 0 01-.778-.8v-1.6c0-2.21 1.741-4 3.889-4h6.222c2.148 0 3.889 1.79 3.889 4v1.6z" fill="#000"/><path fill-rule="evenodd" clip-rule="evenodd" d="M6.111 6c0 2.21 1.741 4 3.889 4 2.148 0 3.889-1.79 3.889-4S12.148 2 10 2C7.852 2 6.111 3.79 6.111 6zm6.222 0c0 1.325-1.044 2.4-2.333 2.4-1.289 0-2.333-1.075-2.333-2.4S8.71 3.6 10 3.6c1.289 0 2.333 1.075 2.333 2.4z" fill="#000"/></svg>